<svg width="158" height="135" viewBox="0 0 158 135" fill="none" xmlns="http://www.w3.org/2000/svg">
<path d="M158 0H0V125H158V0Z" transform="translate(0 10)" fill="white"/>
<path d="M158 0H0V10H158V0Z" fill="#4D4D4D"/>
<path d="M105.891 0H0V58.2905C0 59.395 0.895431 60.2905 2 60.2905H103.891C104.995 60.2905 105.891 59.395 105.891 58.2905V0Z" transform="translate(26.1091 48.7095)" fill="#29ABE2"/>
<path d="M28.0706 0H2C0.895431 0 0 0.89543 0 2V16.5065H30.0706V2C30.0706 0.895431 29.1752 0 28.0706 0Z" transform="translate(26 36)" fill="#29ABE2"/>
<path d="M28.0706 0H2C0.895431 0 0 0.89543 0 2V12.9868H30.0706V2C30.0706 0.89543 29.1752 0 28.0706 0Z" transform="translate(57.9381 36)" fill="#67BF8C"/>
<path d="M28.0707 0H2C0.895431 0 0 0.89543 0 2V12.9868H30.0707V2C30.0707 0.89543 29.1752 0 28.0707 0Z" transform="translate(89.8829 36)" fill="#C8A47A"/>
<path d="M0 0H3.10994V2.98022H0V0Z" transform="translate(134.733 3)" stroke="white" stroke-width="0.5"/>
<path d="M0 0H3.68657" transform="translate(120 6)" stroke="white" stroke-width="0.5" stroke-miterlimit="10"/>
<path d="M0 0L3.10347 3" transform="translate(149 3)" stroke="white" stroke-width="0.5"/>
<path d="M0 3L3.10347 0" transform="translate(149 3)" stroke="white" stroke-width="0.5"/>
</svg>
