<svg xmlns="http://www.w3.org/2000/svg" viewBox="0 0 256 256"><title>tinytabs-logo</title><rect x="7.48" y="46.95" width="241.04" height="178.51" style="fill:#4d4d4d"/><rect x="7.48" y="30.54" width="241.04" height="16.44" style="fill:#4d4d4d"/><line x1="7.48" y1="46.41" x2="248.52" y2="46.41" style="fill:none;stroke:#333;stroke-miterlimit:10;stroke-width:0.75px"/><path d="M208.84,36.48h4.8V41h-4.8Z" style="fill:none;stroke:#fff;stroke-width:0.5px"/><line x1="186.1" y1="41.03" x2="191.79" y2="41.03" style="fill:none;stroke:#fff;stroke-miterlimit:10;stroke-width:0.5px"/><line x1="230.7" y1="36.48" x2="235.49" y2="41.03" style="fill:none;stroke:#fff;stroke-width:0.5px"/><line x1="230.7" y1="41.03" x2="235.49" y2="36.48" style="fill:none;stroke:#fff;stroke-width:0.5px"/><rect x="37.61" y="110.4" width="180.78" height="70.77" style="fill:#29abe2"/><rect x="37.61" y="91.25" width="45.73" height="19.15" style="fill:#29abe2"/><rect x="86.18" y="91.25" width="45.73" height="19.15" style="fill:#0071bc"/><rect x="134.76" y="91.25" width="45.73" height="19.15" style="fill:#0071bc"/><path d="M57.08,159.34V136H49.15v-5.08H70.37V136H62.43v23.32Z" style="fill:#fff"/><path d="M75.25,137.29A3.34,3.34,0,0,1,74,137a3.42,3.42,0,0,1-1.79-1.77,3.26,3.26,0,0,1-.26-1.31,3.33,3.33,0,0,1,.26-1.31,3.39,3.39,0,0,1,.72-1,3.28,3.28,0,0,1,1.07-.71,3.34,3.34,0,0,1,1.29-.26,3.28,3.28,0,0,1,2.38,1,3.31,3.31,0,0,1,0,4.72A3.29,3.29,0,0,1,75.25,137.29Zm-2.58,22.05V139.9h5.19v19.44Z" style="fill:#fff"/><path d="M87.5,142.44h.32a6.61,6.61,0,0,1,2.46-2.32,7.17,7.17,0,0,1,3.53-.85,8.17,8.17,0,0,1,3.21.59,5.83,5.83,0,0,1,2.28,1.69,7.32,7.32,0,0,1,1.35,2.62,11.63,11.63,0,0,1,.46,3.39v11.78h-5.2V148.19a4.46,4.46,0,0,0-.93-3.11,3.53,3.53,0,0,0-2.72-1,3.82,3.82,0,0,0-1.88.45A4.54,4.54,0,0,0,89,145.75a5.75,5.75,0,0,0-.87,1.83,8.14,8.14,0,0,0-.3,2.24v9.52h-5.2V139.9H87.5Z" style="fill:#fff"/><path d="M111.1,158.39l-8.17-18.49h5.91l4.92,11.78H114l4.72-11.78h5.79l-12.18,28h-5.59Z" style="fill:#fff"/><path d="M133.6,159.34V136h-7.94v-5.08h21.22V136H139v23.32Z" style="fill:#fff"/><path d="M159.06,157.28h-.31a8.85,8.85,0,0,1-2.21,1.9,6.22,6.22,0,0,1-3.31.79,8.11,8.11,0,0,1-2.84-.49,7.57,7.57,0,0,1-2.32-1.37,6.09,6.09,0,0,1-1.54-2.1,6.49,6.49,0,0,1-.56-2.7,6.07,6.07,0,0,1,.6-2.72,6.17,6.17,0,0,1,1.66-2.08,7.78,7.78,0,0,1,2.52-1.33,10.63,10.63,0,0,1,3.16-.45A14.23,14.23,0,0,1,157,147a15.59,15.59,0,0,1,2,.62V147a3.19,3.19,0,0,0-1.23-2.56,4.67,4.67,0,0,0-3.05-1,5.72,5.72,0,0,0-4.56,2.26l-3.77-2.57a10.19,10.19,0,0,1,8.45-3.89q4.51,0,6.9,2.12c1.59,1.42,2.38,3.51,2.38,6.29v11.66h-5.12Zm0-5.83a10.64,10.64,0,0,0-1.88-.7,8.38,8.38,0,0,0-2.12-.26,4.49,4.49,0,0,0-2.88.82,2.49,2.49,0,0,0-1,2,2.23,2.23,0,0,0,1,1.9,3.68,3.68,0,0,0,2.24.72,4.82,4.82,0,0,0,1.91-.38,4.69,4.69,0,0,0,1.48-1,4.31,4.31,0,0,0,.95-1.43A4.24,4.24,0,0,0,159.06,151.45Z" style="fill:#fff"/><path d="M168.3,130.94h5.2v8.53l-.32,2.77h.32a5.94,5.94,0,0,1,2.22-2.1,7.38,7.38,0,0,1,3.73-.87A8.49,8.49,0,0,1,183,140a9.55,9.55,0,0,1,3,2.14,10.4,10.4,0,0,1,2,3.28,11.94,11.94,0,0,1,0,8.33,10.24,10.24,0,0,1-2,3.27,9.39,9.39,0,0,1-3,2.14,8.34,8.34,0,0,1-3.55.77,7.38,7.38,0,0,1-3.73-.87,5.94,5.94,0,0,1-2.22-2.1h-.32v2.34H168.3Zm10.08,24.23a5,5,0,0,0,2-.39,5.45,5.45,0,0,0,1.65-1.11,5.38,5.38,0,0,0,1.15-1.75,6.23,6.23,0,0,0,0-4.6,5.23,5.23,0,0,0-1.15-1.74,5.3,5.3,0,0,0-1.65-1.12,5,5,0,0,0-2-.39,5.18,5.18,0,0,0-2,.37,5,5,0,0,0-1.65,1.1,5.23,5.23,0,0,0-1.15,1.74,6.44,6.44,0,0,0,0,4.68,5.38,5.38,0,0,0,1.15,1.75,5,5,0,0,0,1.65,1.09A5.18,5.18,0,0,0,178.38,155.17Z" style="fill:#fff"/><path d="M199.6,160a11,11,0,0,1-3.39-.47,9.67,9.67,0,0,1-2.58-1.25,8.24,8.24,0,0,1-1.84-1.79,8.38,8.38,0,0,1-1.15-2l4.64-2a5.06,5.06,0,0,0,1.8,2.24,4.55,4.55,0,0,0,2.52.73,4.3,4.3,0,0,0,2.26-.51,1.48,1.48,0,0,0,.84-1.23,1.53,1.53,0,0,0-.7-1.29,7.06,7.06,0,0,0-2.4-.89l-2.73-.6a9.52,9.52,0,0,1-1.89-.63,7.6,7.6,0,0,1-1.76-1.11,5.64,5.64,0,0,1-1.31-1.63,4.55,4.55,0,0,1-.52-2.22,5.16,5.16,0,0,1,.62-2.54,5.69,5.69,0,0,1,1.68-1.88,8.17,8.17,0,0,1,2.52-1.2,11.54,11.54,0,0,1,3.12-.41,10.86,10.86,0,0,1,4.95,1.09,6.71,6.71,0,0,1,3.22,3.47L203,145.65a3.44,3.44,0,0,0-1.62-1.66,5,5,0,0,0-2.14-.52,4,4,0,0,0-1.95.46,1.34,1.34,0,0,0-.83,1.17,1.19,1.19,0,0,0,.69,1.07,8.28,8.28,0,0,0,1.89.71l3,.72a8.53,8.53,0,0,1,4.43,2.28,5.41,5.41,0,0,1,.85,6.13,6.41,6.41,0,0,1-1.69,2,8.11,8.11,0,0,1-2.62,1.41A10.63,10.63,0,0,1,199.6,160Z" style="fill:#fff"/></svg>